<svg width="20" height="20" viewBox="0 0 20 20" fill="none" xmlns="http://www.w3.org/2000/svg">
<circle cx="10" cy="10" r="7" fill="currentColor"/>
<path d="M6.72781 6.72781C7.03155 6.42406 7.52401 6.42406 7.82775 6.72781L10 8.90006L12.1723 6.72781C12.476 6.42406 12.9685 6.42406 13.2722 6.72781C13.5759 7.03155 13.5759 7.52401 13.2722 7.82775L12.1861 8.91388L11.0999 10L13.2722 12.1723C13.5759 12.476 13.5759 12.9685 13.2722 13.2722C12.9685 13.5759 12.476 13.5759 12.1723 13.2722L10 11.0999L7.82775 13.2722C7.52401 13.5759 7.03155 13.5759 6.72781 13.2722C6.42406 12.9685 6.42406 12.476 6.72781 12.1723L8.90006 10L6.72781 7.82775C6.42406 7.52401 6.42406 7.03155 6.72781 6.72781Z" fill="white"/>
</svg>
