<svg width="24" height="24" viewBox="0 0 24 24" fill="none" xmlns="http://www.w3.org/2000/svg">
<path d="M18.7071 11.2929C19.0976 11.6834 19.0976 12.3166 18.7071 12.7071L12.7071 18.7071C12.3166 19.0976 11.6834 19.0976 11.2929 18.7071C10.9024 18.3166 10.9024 17.6834 11.2929 17.2929L16.5858 12L11.2929 6.70711C10.9024 6.31658 10.9024 5.68342 11.2929 5.29289C11.6834 4.90237 12.3166 4.90237 12.7071 5.29289L18.7071 11.2929ZM10.5858 12L5.29289 6.70711C4.90237 6.31658 4.90237 5.68342 5.29289 5.29289C5.68342 4.90237 6.31658 4.90237 6.70711 5.29289L12.7071 11.2929C13.0976 11.6834 13.0976 12.3166 12.7071 12.7071L6.70711 18.7071C6.31658 19.0976 5.68342 19.0976 5.29289 18.7071C4.90237 18.3166 4.90237 17.6834 5.29289 17.2929L10.5858 12Z" fill="currentColor"/>
</svg>
