<svg width="24" height="24" viewBox="0 0 24 24" fill="none" xmlns="http://www.w3.org/2000/svg">
<path d="M5.29289 12.7071C4.90237 12.3166 4.90237 11.6834 5.29289 11.2929L11.2929 5.29289C11.6834 4.90237 12.3166 4.90237 12.7071 5.29289C13.0976 5.68342 13.0976 6.31658 12.7071 6.70711L7.41421 12L12.7071 17.2929C13.0976 17.6834 13.0976 18.3166 12.7071 18.7071C12.3166 19.0976 11.6834 19.0976 11.2929 18.7071L5.29289 12.7071ZM13.4142 12L18.7071 17.2929C19.0976 17.6834 19.0976 18.3166 18.7071 18.7071C18.3166 19.0976 17.6834 19.0976 17.2929 18.7071L11.2929 12.7071C10.9024 12.3166 10.9024 11.6834 11.2929 11.2929L17.2929 5.29289C17.6834 4.90237 18.3166 4.90237 18.7071 5.29289C19.0976 5.68342 19.0976 6.31658 18.7071 6.70711L13.4142 12Z" fill="currentColor"/>
</svg>
